<svg width="16" height="17" viewBox="0 0 16 17" fill="none" xmlns="http://www.w3.org/2000/svg">
<path d="M15.5325 7.89175H8.46753V0.800845C8.46753 0.541105 8.25974 0.333313 8 0.333313C7.74026 0.333313 7.55844 0.541105 7.55844 0.800845V7.89175H0.467532C0.207792 7.89175 0 8.09955 0 8.35929C0 8.61903 0.207792 8.80085 0.467532 8.80085H7.55844V15.8658C7.55844 16.1255 7.76623 16.3333 8.02597 16.3333C8.28571 16.3333 8.49351 16.1255 8.49351 15.8658V8.80085H15.5325C15.7922 8.80085 16 8.59305 16 8.33331C16 8.07357 15.7922 7.89175 15.5325 7.89175Z" fill="white"/>
</svg>
