<svg width="282" height="280" viewBox="0 0 282 280" fill="none" xmlns="http://www.w3.org/2000/svg">
<g clipPath="url(#clip0_1247_8413)">
<path d="M277.864 119.604C270.241 69.6424 238.981 8.27025 177.221 1.85002C177.221 1.85002 130.325 -3.86019 84.1097 4.79012C56.666 9.93031 32.619 25.2108 17.3936 47.1816C2.16814 69.1524 -2.917 95.9434 3.25709 121.484C7.26326 138.075 9.97066 155.245 9.23137 172.286C7.94261 201.957 8.6819 229.648 37.4444 247.339C63.1298 263.139 95.4488 277.07 126.289 279.51C147.249 281.17 170.747 278.49 190.947 273.02C293.869 245.209 285.487 169.556 277.864 119.604Z" fill="#F4F7FA"/>
<path d="M134.462 21.8807L106.819 251.849C106.399 255.299 108.777 258.389 112.103 258.719L227.223 271.37C234.276 271.81 238.133 268.199 238.572 264.539L267.595 20.0506C268.024 16.4005 264.567 13.1003 257.484 13.1003L141.315 15.5504C137.959 15.6004 134.882 18.4505 134.462 21.8807Z" fill="#AABBCC"/>
<path d="M129.287 21.4808L101.493 252.599C101.074 256.069 103.461 259.169 106.798 259.499L226.154 271.39C229.9 271.76 233.327 269.05 233.766 265.37L262.949 19.6207C263.388 15.9606 260.631 13.0105 256.854 13.0705L136.17 15.1106C132.793 15.1706 129.696 18.0307 129.287 21.4808Z" fill="#BFC8D6"/>
<path d="M131.554 34.2311L105.799 248.519C105.409 251.759 107.637 254.659 110.764 254.959L223.007 265.879C226.484 266.219 229.671 263.689 230.08 260.259L257.044 33.241C257.454 29.8309 254.896 27.0708 251.39 27.1008L137.988 28.3109C134.831 28.3409 131.934 31.011 131.554 34.2311Z" fill="#EAEDF3"/>
<path d="M191.747 21.3207C191.597 22.5507 192.486 23.5308 193.715 23.5208C194.944 23.5108 196.073 22.4907 196.223 21.2607C196.373 20.0306 195.483 19.0406 194.245 19.0606C193.006 19.0806 191.887 20.0906 191.747 21.3207Z" fill="white"/>
<path d="M168.869 127.075L162.884 129.815C161.935 130.255 161.496 131.365 161.895 132.295L163.384 135.705C161.925 136.685 160.557 137.785 159.288 139.005L156.311 136.835C155.491 136.235 154.323 136.435 153.703 137.275L149.827 142.545C149.207 143.385 149.367 144.565 150.176 145.175L153.114 147.375C152.324 148.955 151.665 150.595 151.146 152.285L147.499 151.875C146.48 151.765 145.561 152.515 145.421 153.555L144.582 160.116C144.442 161.166 145.161 162.126 146.18 162.256L149.827 162.706C149.907 164.506 150.147 166.296 150.536 168.056L147.119 169.546C146.16 169.966 145.711 171.106 146.1 172.106L148.598 178.396C148.998 179.406 150.117 179.896 151.086 179.476L154.552 177.986C155.521 179.556 156.62 181.036 157.839 182.417L155.551 185.527C154.912 186.427 155.082 187.667 155.931 188.367L161.326 192.737C162.125 193.417 163.324 193.317 164.003 192.517C164.033 192.477 164.063 192.447 164.093 192.407L166.431 189.217C168.079 190.117 169.798 190.867 171.566 191.467L171.126 195.537C171.007 196.677 171.796 197.737 172.905 197.917L179.888 199.027C180.947 199.197 181.946 198.477 182.126 197.417C182.136 197.367 182.136 197.317 182.146 197.267L182.565 193.127C184.454 193.067 186.332 192.837 188.18 192.447L189.898 196.387C190.378 197.477 191.617 198.017 192.666 197.597L199.279 194.917C200.348 194.487 200.808 193.247 200.308 192.147L198.51 188.167C200.099 187.147 201.587 185.977 202.966 184.687L206.493 187.327C207.462 188.057 208.8 187.897 209.48 186.967L213.706 181.186C214.385 180.266 214.135 178.936 213.156 178.216L209.56 175.596C210.369 173.896 211.028 172.126 211.518 170.316L215.884 170.856C217.072 171.006 218.111 170.186 218.201 169.046L218.771 161.916C218.861 160.786 217.972 159.756 216.793 159.626L212.447 159.136C212.257 157.276 211.907 155.436 211.398 153.635L215.324 151.955C216.313 151.545 216.793 150.415 216.383 149.415C216.363 149.365 216.343 149.325 216.323 149.275L213.186 142.935C212.667 141.925 211.448 141.485 210.399 141.935L206.533 143.615C205.454 142.115 204.245 140.715 202.926 139.435L205.334 136.145C205.953 135.295 205.773 134.105 204.924 133.475C204.894 133.455 204.864 133.435 204.824 133.405L199.07 129.555C198.151 128.945 196.922 129.155 196.262 130.035L193.885 133.275C192.236 132.525 190.528 131.915 188.78 131.455L189.169 127.565C189.279 126.515 188.48 125.594 187.401 125.514L180.687 124.984C179.618 124.904 178.669 125.674 178.559 126.705L178.15 130.515C176.381 130.665 174.633 130.965 172.915 131.415L171.356 127.975C170.947 127.035 169.828 126.635 168.869 127.075ZM188.61 179.906C178.24 184.237 166.371 179.166 162.065 168.866C157.859 158.806 162.395 147.325 172.215 142.945C182.156 138.505 194.084 142.875 198.84 152.975C203.695 163.326 199.12 175.506 188.61 179.906Z" fill="white"/>
<path d="M157.41 67.2824L153.564 69.9925C152.954 70.4225 152.765 71.2225 153.154 71.7825L154.573 73.8226C153.674 74.6926 152.844 75.6327 152.095 76.6327L149.777 75.6427C149.138 75.3727 148.349 75.6827 148.009 76.3327L145.891 80.4228C145.551 81.0829 145.791 81.8329 146.431 82.1129L148.728 83.1229C148.359 84.283 148.079 85.483 147.909 86.6931L145.312 86.9931C144.582 87.0831 144.043 87.7031 144.053 88.4331L144.203 92.9233C144.223 93.5933 144.772 94.1133 145.442 94.1033C145.482 94.1033 145.521 94.1033 145.571 94.0933L148.169 93.8133C148.429 94.9934 148.798 96.1434 149.268 97.2434L147.05 98.7735C146.431 99.2035 146.241 100.034 146.63 100.634L149.088 104.404C149.488 105.014 150.317 105.154 150.946 104.724L153.194 103.184C154.043 104.074 154.972 104.874 155.971 105.584L154.733 108.014C154.383 108.654 154.623 109.454 155.262 109.804C155.282 109.814 155.292 109.824 155.312 109.824L159.528 111.834C160.227 112.154 161.057 111.854 161.396 111.164L162.645 108.694C163.884 109.024 165.153 109.234 166.421 109.344L166.571 112.084C166.611 112.834 167.251 113.404 168 113.364C168.02 113.364 168.04 113.364 168.06 113.364L172.955 112.954C173.734 112.894 174.334 112.224 174.294 111.434L174.124 108.654C175.403 108.314 176.652 107.864 177.861 107.304L179.459 109.604C179.929 110.244 180.818 110.394 181.467 109.944L185.643 107.134C186.292 106.724 186.482 105.864 186.073 105.214C186.063 105.204 186.053 105.184 186.043 105.174L184.404 102.864C185.363 101.954 186.242 100.954 187.022 99.8935L189.679 101.054C190.418 101.374 191.268 101.064 191.637 100.354L193.845 95.9334C194.175 95.2734 193.915 94.4733 193.266 94.1433C193.236 94.1233 193.196 94.1133 193.156 94.0933L190.468 92.9433C190.828 91.7232 191.078 90.4732 191.208 89.2031L194.185 88.8831C194.994 88.7931 195.594 88.1131 195.534 87.3531L195.144 82.6329C195.084 81.8829 194.385 81.3529 193.575 81.4429L190.608 81.7829C190.289 80.6028 189.849 79.4528 189.31 78.3628L191.757 76.6827C192.417 76.2327 192.586 75.3827 192.137 74.7926L189.35 71.1225C188.91 70.5425 188.021 70.4325 187.371 70.8825L184.954 72.5526C184.055 71.7325 183.095 70.9925 182.066 70.3525L183.335 67.8424C183.655 67.2524 183.435 66.5223 182.846 66.2023C182.796 66.1723 182.746 66.1523 182.686 66.1323L178.37 64.4423C177.661 64.1823 176.861 64.4923 176.512 65.1623L175.253 67.6324C174.044 67.3824 172.815 67.2324 171.577 67.1924L171.417 64.5723C171.377 63.8622 170.727 63.3722 169.978 63.4822L165.323 64.1122C164.583 64.2123 164.014 64.8623 164.054 65.5623L164.194 68.1424C162.985 68.5024 161.816 68.9624 160.687 69.5124L159.248 67.5024C158.849 66.9424 158.029 66.8423 157.41 67.2824ZM176.792 99.0435C170.208 103.524 161.496 102.084 157.37 95.9734C153.334 89.9832 155.192 81.6729 161.486 77.2727C167.83 72.8526 176.452 73.9426 180.778 79.8428C185.193 85.873 183.425 94.5333 176.792 99.0435Z" fill="white"/>
<path d="M242.368 46.3415L222.947 244.659C222.577 248.439 219.2 251.229 215.414 250.899L96.6378 240.388C93.241 240.088 90.8133 236.948 91.213 233.378L112.632 45.9615C113.022 42.5614 116.049 39.8013 119.406 39.8013L236.274 39.8213C239.981 39.8313 242.728 42.7514 242.368 46.3415Z" fill="url(#paint0_linear_1247_8413)"/>
<path d="M240.65 46.3316L221.188 244.509C220.899 247.329 218.411 249.399 215.584 249.149L96.8275 238.738C94.2899 238.518 92.4817 236.178 92.7914 233.518L114.191 45.9716C114.481 43.4415 116.738 41.3814 119.236 41.3914L236.114 41.4914C238.872 41.4914 240.91 43.6615 240.65 46.3316Z" fill="#D8DEE8"/>
<path d="M240.65 46.3316L239.361 59.452L112.763 58.402L114.181 45.9716C114.471 43.4415 116.729 41.3814 119.227 41.3914L236.105 41.4914C238.872 41.4914 240.91 43.6615 240.65 46.3316Z" fill="url(#paint1_linear_1247_8413)"/>
<path d="M125.58 49.1617C125.38 50.8917 123.842 52.2918 122.134 52.2818C120.425 52.2718 119.206 50.8617 119.406 49.1417C119.606 47.4216 121.135 46.0215 122.843 46.0315C124.551 46.0415 125.78 47.4316 125.58 49.1617Z" fill="white"/>
<path d="M137.219 49.2116C137.029 50.9517 135.471 52.3517 133.743 52.3417C132.014 52.3317 130.785 50.9217 130.985 49.1816C131.185 47.4416 132.723 46.0515 134.452 46.0515C136.18 46.0515 137.409 47.4716 137.219 49.2116Z" fill="white"/>
<path d="M148.978 49.2617C148.788 51.0118 147.22 52.4218 145.481 52.4118C143.743 52.4018 142.494 50.9818 142.684 49.2417C142.874 47.5017 144.442 46.0916 146.181 46.1016C147.919 46.1116 149.168 47.5217 148.978 49.2617Z" fill="white"/>
<path d="M187.89 89.2331L116.549 87.7331C115.719 87.7131 114.96 88.3931 114.86 89.2432L109.056 140.405C108.956 141.265 109.555 141.995 110.395 142.035L182.046 145.255C182.955 145.285 183.724 144.615 183.824 143.715L189.319 90.8632C189.409 90.0632 188.849 89.3432 188.05 89.2532C188 89.2332 187.95 89.2331 187.89 89.2331Z" fill="white"/>
<path d="M187.451 73.7525L116.109 72.7225L117.048 64.4622L188.34 65.2422L187.451 73.7525Z" fill="white"/>
<path d="M143.733 80.2127L115.32 79.7127L115.75 75.8926L144.153 76.3526L143.733 80.2127Z" fill="white"/>
<path d="M227.313 94.0833L196.772 93.3932L197.182 89.4231L227.713 90.0631L227.313 94.0833Z" fill="white"/>
<path d="M226.514 102.144L195.953 101.344L196.363 97.3635L226.913 98.1136L226.514 102.144Z" fill="white"/>
<path d="M225.715 110.204L195.124 109.304L195.544 105.324L226.114 106.174L225.715 110.204Z" fill="white"/>
<path d="M224.175 125.714L193.555 124.614L193.964 120.614L224.575 121.664L224.175 125.714Z" fill="white"/>
<path d="M223.366 133.825L192.726 132.625L193.135 128.615L223.776 129.765L223.366 133.825Z" fill="white"/>
<path d="M222.567 141.955L191.896 140.645L192.316 136.635L222.967 137.895L222.567 141.955Z" fill="white"/>
<path d="M221.379 153.846C221.309 154.416 220.819 154.836 220.24 154.816L108.347 149.425C107.857 149.395 107.478 148.975 107.508 148.485C107.508 148.455 107.508 148.435 107.518 148.405C107.577 147.875 108.027 147.465 108.567 147.475L220.439 152.765C220.969 152.785 221.398 153.225 221.379 153.766C221.388 153.796 221.379 153.826 221.379 153.846Z" fill="white"/>
<path d="M213.506 233.198C213.446 233.778 212.937 234.198 212.357 234.158L99.7851 224.978C99.2656 224.928 98.896 224.468 98.9459 223.948C98.9459 223.938 98.9459 223.918 98.9459 223.908C98.9959 223.368 99.4654 222.968 100.005 222.998L212.557 232.078C213.117 232.118 213.546 232.608 213.496 233.178C213.506 233.178 213.506 233.188 213.506 233.198Z" fill="white"/>
<path d="M229.7 70.0325L205.923 69.7325L206.362 65.4424L230.13 65.7024L229.7 70.0325Z" fill="white"/>
<path d="M228.432 69.0125L210.409 68.7925L210.639 66.4824L228.662 66.6824L228.432 69.0125Z" fill="#A2BFE6"/>
<path d="M152.904 221.468L100.334 217.358L107.457 154.595L159.767 157.236L152.904 221.468Z" fill="white"/>
<path d="M214.195 226.268L158.858 221.938L165.692 157.536L220.739 160.316L214.195 226.268Z" fill="white"/>
<path d="M117.378 138.075C117.378 140.825 115.36 143.275 113.092 143.275H34.4675C32.1997 143.275 30.3115 140.825 30.3115 138.075V89.9633C30.3115 87.2132 32.2097 85.1731 34.4675 85.1731H113.092C115.36 85.1731 117.378 87.2232 117.378 89.9633V138.075Z" fill="url(#paint2_linear_1247_8413)"/>
<path d="M119.546 89.9633V138.075C119.546 139.915 118.737 141.635 117.508 142.525C116.909 142.965 116.219 143.275 115.48 143.275H36.8553C34.5875 143.275 32.4795 140.825 32.4795 138.075V89.9633C32.4795 87.2132 34.5875 85.1631 36.8553 85.1631H115.48C117.748 85.1731 119.546 87.2132 119.546 89.9633Z" fill="#A2BFE6"/>
<g opacity="0.3">
<path d="M117.528 142.525C116.929 142.965 116.229 143.275 115.48 143.275H36.8553C34.5875 143.275 32.4795 140.825 32.4795 138.075V89.9633C32.4795 87.2132 34.5875 85.1631 36.8553 85.1631H37.6445C39.1031 87.7032 40.9214 91.1433 43.1693 94.1834C63.7895 122.064 96.3983 114.024 115.23 139.255C116.079 140.405 116.839 141.475 117.528 142.525Z" fill="#A2BFE6"/>
</g>
<path d="M32.4697 133.575V128.794C32.4697 128.794 33.159 127.774 33.5187 125.244C33.8783 122.714 33.2289 123.724 32.8993 124.774C32.7994 125.064 32.6295 125.324 32.3997 125.524C31.8403 126.044 30.9311 125.704 30.8212 124.954L30.3717 121.794C30.3717 121.794 28.5334 123.674 29.8622 128.364C30.2718 129.834 29.8622 133.375 29.8622 133.375L32.4697 133.575Z" fill="url(#paint3_linear_1247_8413)"/>
<path d="M116.089 137.375L117.288 132.725C117.288 132.725 116.129 130.935 116.688 129.114C117.248 127.294 116.908 127.944 117.358 129.114C117.807 130.285 118.686 128.304 119.376 126.494C120.065 124.684 120.425 127.464 120.255 129.114C120.085 130.765 120.025 131.745 119.036 132.955C118.047 134.165 118.247 138.445 118.247 138.445L116.089 137.375Z" fill="url(#paint4_linear_1247_8413)"/>
<path d="M47.8245 265.489C47.7845 264.459 45.3169 264.669 43.6984 264.829C42.08 264.989 41.3706 265.629 41.1109 266.239C40.8511 266.849 41.0509 268.349 42.5395 267.719C43.7783 267.199 47.8544 266.389 47.8245 265.489Z" fill="#26264F"/>
<path d="M44.8474 261.519L43.6985 265.489C43.6985 265.489 42.5496 266.28 42.1699 265.889L42.5995 261.309L44.8474 261.519Z" fill="url(#paint5_linear_1247_8413)"/>
<path d="M52.9794 259.169L49.1631 260.829L49.8125 262.759L53.6188 261.769L52.9794 259.169Z" fill="url(#paint6_linear_1247_8413)"/>
<path d="M53.1994 266.659C53.1994 266.659 50.6519 267.309 49.5329 265.809C48.8136 264.839 48.2142 263.199 47.8745 262.159C47.6947 261.589 47.9844 260.979 48.5339 260.759C49.3431 260.439 50.4321 260.089 50.9016 260.349C51.6809 260.789 50.9516 263.709 51.2912 264.479C51.6309 265.239 53.2893 265.729 53.1994 266.659Z" fill="#26264F"/>
<path d="M59.1134 199.707C58.454 210.327 56.9954 220.888 54.7476 231.298C52.4198 242.099 49.2529 252.709 45.2667 263.009C44.1278 263.559 42.789 263.559 41.6501 263.009C41.0307 258.259 40.701 254.249 40.5312 251.269C40.0617 243.409 39.8419 239.378 40.9208 234.698C41.9199 230.308 42.7291 230.648 43.7781 225.798C44.7072 221.478 44.7272 218.158 44.7272 213.308C44.7272 208.897 44.4574 204.487 43.928 200.117L59.1134 199.707Z" fill="url(#paint7_linear_1247_8413)"/>
<path opacity="0.3" d="M44.7676 259.769C45.7766 256.519 43.7885 255.029 44.0183 250.909C44.2981 245.869 47.4051 245.719 48.3841 240.048C49.1734 235.488 47.2552 235.098 47.7647 229.558C48.3042 223.668 50.622 222.478 50.1325 218.948C49.8627 216.988 48.7138 214.308 44.7077 211.387C44.6377 207.627 44.378 203.867 43.9284 200.127L59.1139 199.727C58.4545 210.347 56.9859 220.908 54.748 231.308C52.4203 242.109 49.2533 252.719 45.2671 263.019C44.7376 263.269 44.1682 263.409 43.5787 263.429C43.2191 263.439 42.8594 263.399 42.5098 263.319C43.4688 262.379 44.318 261.219 44.7676 259.769Z" fill="url(#paint8_linear_1247_8413)"/>
<path d="M71.4621 198.087C71.7319 201.317 72.1714 204.527 72.7809 207.707C74.5292 216.808 76.5373 219.728 77.0767 225.678C77.6961 232.618 75.798 238.088 75.0787 240.158C70.1634 254.349 56.6563 260.949 53.0897 262.569C52.6901 261.259 52.2805 259.949 51.8809 258.639C53.2196 256.849 54.3785 254.939 55.3675 252.939C57.5155 248.559 57.6553 245.979 59.1139 241.658C61.7514 233.878 63.7595 234.978 64.239 231.018C64.9983 224.738 59.9431 222.208 55.3775 210.197C54.3685 207.547 53.5393 204.837 52.8799 202.077L71.4621 198.087Z" fill="url(#paint9_linear_1247_8413)"/>
<path d="M33.2982 131.665L29.4319 131.045C27.8134 133.325 23.1479 140.525 24.067 150.145C24.2868 152.425 25.2259 159.996 31.6098 166.016C36.1854 170.326 41.2706 171.686 43.5983 172.146C43.5983 183.357 43.3885 190.417 43.0089 194.647C42.9589 195.157 42.5693 199.437 43.1488 204.957C43.3286 206.637 43.4185 207.487 43.6483 207.957C46.8352 214.398 65.1277 209.297 70.063 207.157C71.3418 206.597 72.6505 205.827 73.21 204.457C73.9293 202.697 73.24 201.107 72.9602 199.717C72.2709 196.297 74.3089 193.717 78.385 187.077C80.1034 184.267 82.611 180.056 85.5282 174.586C88.9149 175.576 96.8873 177.346 104.69 173.616C116.159 168.136 122.703 152.975 119.366 136.545L115.869 135.545C114.86 139.785 113.062 143.785 110.574 147.355C108.726 149.985 107.187 152.175 104.52 153.395C100.334 155.316 96.6076 153.365 91.1728 152.025C82.601 149.905 75.4378 150.695 66.7362 151.655C57.2253 152.705 54.6178 154.656 47.6744 153.345C44.5774 152.765 40.7111 151.975 37.5441 148.905C31.3001 142.845 33.0384 133.015 33.2982 131.665Z" fill="url(#paint10_linear_1247_8413)"/>
<path d="M68.8245 144.185C68.8245 144.185 69.394 146.465 68.5947 147.495C67.7955 148.525 65.1081 152.445 64.2389 152.635C63.7394 152.745 62.4906 152.935 61.5115 153.075C60.992 153.155 60.8821 153.865 61.3617 154.065C62.3407 154.485 64.0591 154.915 67.0063 154.885C71.2722 154.835 74.7089 153.215 76.2074 152.375C76.3173 152.315 76.3573 152.175 76.2974 152.065C76.2574 151.985 76.1675 151.945 76.0776 151.955L74.1594 152.095C72.7108 152.205 71.442 151.115 71.3321 149.665C71.3221 149.505 71.3221 149.335 71.3421 149.175L71.462 148.105L68.8245 144.185Z" fill="url(#paint11_linear_1247_8413)"/>
<path d="M70.5832 148.785C70.8429 148.645 72.9909 148.375 73.2906 147.225C73.6902 145.655 72.2815 143.745 72.1117 143.445C71.3824 142.165 71.1926 141.985 70.8529 141.765L70.3734 141.485L70.3134 141.465C70.0137 141.365 68.9847 141.355 68.7849 141.405C68.1255 141.565 67.4861 144.275 67.7659 148.085C67.7459 148.235 67.7159 148.375 67.6959 148.525C67.646 148.915 70.6032 148.925 70.5832 148.785Z" fill="url(#paint12_linear_1247_8413)"/>
<path d="M72.6014 141.245C72.6913 141.715 71.4624 142.635 70.933 143.035C70.7731 143.175 70.6332 143.335 70.5134 143.515C70.4834 143.555 70.4634 143.605 70.4434 143.655C70.2037 144.405 71.4025 145.255 71.1827 145.595C71.0229 145.845 70.2136 145.535 70.1237 145.745C70.0338 145.955 70.7132 146.335 70.6233 146.575C70.5533 146.755 70.1337 146.605 69.884 146.875C69.7541 147.015 69.794 147.115 69.6742 147.535C69.6042 147.755 69.5243 147.965 69.4144 148.175C69.0248 148.875 67.8759 149.155 67.6461 148.885C67.5862 148.805 67.6361 148.745 67.5662 148.485C67.5062 148.305 67.4263 148.135 67.3264 147.975C67.0766 147.585 66.4972 147.315 65.9078 146.905C64.8088 146.155 64.4991 145.495 64.4092 145.275C64.3992 145.255 64.3892 145.225 64.3792 145.205C64.3593 145.165 64.3493 145.125 64.3393 145.095C64.1095 144.335 65.0686 143.025 65.0686 143.025C65.8378 141.985 66.8069 141.295 67.5862 140.845C68.6951 140.625 69.834 140.565 70.9629 140.685C71.6223 140.765 72.5314 140.875 72.6014 141.245Z" fill="#26264F"/>
<path d="M73.0402 145.165C73.0402 145.165 72.1311 146.255 70.9322 144.945L70.3428 145.125C70.3428 145.125 71.7914 148.315 72.1011 148.315C72.4108 148.315 73.3199 148.105 73.3199 148.105C73.6596 147.965 73.8494 147.595 73.7695 147.235C73.6296 146.585 73.25 145.625 73.0402 145.165Z" fill="#26264F"/>
<path d="M70.6429 145.325C70.3432 144.935 69.8437 145.315 69.8537 145.835C69.8637 146.355 70.3732 146.875 70.8527 146.765C71.3322 146.655 71.0525 145.855 70.6429 145.325Z" fill="url(#paint13_linear_1247_8413)"/>
<path opacity="0.3" d="M48.5136 206.077C54.7077 208.267 61.9307 205.067 63.729 200.707C65.0578 197.487 62.2105 194.407 64.2285 191.097C66.1667 187.897 69.6733 189.337 72.091 186.107C74.7285 182.587 71.6215 179.466 73.9592 174.746C75.7175 171.196 79.9235 167.996 84.0596 168.006C88.9749 168.016 90.8131 172.546 95.039 171.626C97.2469 171.146 97.197 169.816 100.274 167.626C105.629 163.836 109.215 165.426 113.621 162.756C114.92 161.976 116.359 160.766 117.707 158.836C115.08 165.526 110.524 170.826 104.69 173.616C96.8873 177.346 88.9149 175.576 85.5282 174.586C82.6109 180.056 80.1033 184.267 78.385 187.077C74.3089 193.717 72.2808 196.297 72.9602 199.717C73.2399 201.107 73.9293 202.707 73.2099 204.457C72.6505 205.827 71.3417 206.597 70.063 207.157C65.1277 209.297 46.8352 214.398 43.6482 207.957C43.4185 207.497 43.3286 206.647 43.1487 204.957C43.0388 203.907 42.9689 202.907 42.9189 201.967C44.1877 203.597 45.996 205.187 48.5136 206.077Z" fill="url(#paint14_linear_1247_8413)"/>
<path d="M201.797 253.759C202.436 255.259 203.206 256.699 204.095 258.069C203.965 258.189 203.845 258.319 203.725 258.459C201.357 261.159 201.207 265.249 203.445 267.56C205.703 269.89 209.48 269.48 211.817 266.65C211.937 266.5 212.047 266.35 212.157 266.2C213.516 267.09 214.964 267.86 216.463 268.5C216.403 268.68 216.353 268.86 216.313 269.05C215.474 272.7 217.382 276.2 220.579 276.81C223.776 277.42 226.963 274.88 227.682 271.21C227.722 271.02 227.742 270.84 227.762 270.66C229.41 270.62 231.049 270.43 232.667 270.1C232.707 270.28 232.747 270.46 232.797 270.63C233.796 274.08 237.093 275.84 240.13 274.51C243.127 273.2 244.656 269.38 243.587 266.029C243.527 265.859 243.467 265.689 243.397 265.529C244.766 264.599 246.065 263.549 247.263 262.409C247.373 262.529 245.565 263.099 245.685 263.219C248.063 265.449 253.497 264.609 255.376 261.929C257.224 259.299 256.784 255.469 254.437 253.349C254.317 253.239 254.187 253.139 254.057 253.039C254.756 251.579 255.346 250.079 255.815 248.529C255.965 248.569 256.105 248.609 256.255 248.639C259.152 249.189 261.769 247.099 262.109 244.019C262.439 240.989 260.431 238.139 257.633 237.608C257.494 237.578 257.344 237.568 257.204 237.548C257.134 236.028 256.944 234.518 256.644 233.028C256.784 232.988 256.914 232.948 257.044 232.898C259.612 231.928 260.79 228.968 259.731 226.308C258.682 223.688 255.815 222.318 253.308 223.218C253.178 223.268 253.048 223.318 252.928 223.378C252.199 222.158 251.369 220.998 250.46 219.898C250.55 219.808 250.65 219.708 250.73 219.598C252.408 217.578 252.059 214.558 249.991 212.848C247.943 211.148 244.936 211.338 243.227 213.288C243.137 213.388 243.057 213.498 242.977 213.608C241.789 212.928 240.56 212.338 239.281 211.848C239.321 211.718 239.351 211.588 239.381 211.458C239.87 208.947 238.332 206.477 232.577 205.947C229.93 205.697 230.469 207.127 229.9 209.627C229.87 209.757 229.85 209.888 229.83 210.018C228.451 209.998 227.063 210.088 225.694 210.278C225.664 210.148 225.634 210.017 225.594 209.897C224.815 207.467 222.957 205.187 216.942 206.957C214.305 207.737 215.354 210.448 216.083 212.938C216.123 213.068 216.163 213.198 216.213 213.318C214.924 213.988 213.686 214.748 212.507 215.598C212.417 215.498 212.327 215.408 212.227 215.308C210.269 213.538 207.052 213.748 205.004 215.778C202.926 217.838 202.806 221.018 204.794 222.868C204.894 222.968 205.004 223.058 205.114 223.138C204.235 224.408 203.445 225.728 202.746 227.108C202.606 227.068 202.466 227.028 202.316 226.998C199.499 226.458 196.462 228.348 195.533 231.268C194.584 234.248 196.162 237.148 199.07 237.708C199.219 237.738 199.369 237.759 199.519 237.769C199.329 239.369 199.259 240.979 199.309 242.589C199.149 242.629 199 242.679 198.84 242.729C195.793 243.819 193.815 247.199 194.444 250.319C195.093 253.489 198.18 255.129 201.307 253.949C201.477 253.909 201.637 253.829 201.797 253.759ZM209.959 244.629C207.302 233.968 213.536 223.008 223.426 219.708C232.997 216.508 243.227 221.448 246.704 231.118C250.38 241.339 245.355 253.359 234.965 257.579C224.195 261.939 212.766 255.929 209.959 244.629Z" fill="url(#paint15_linear_1247_8413)"/>
<path d="M199.08 237.708C196.163 237.148 194.585 234.248 195.544 231.268C196.483 228.348 199.51 226.458 202.327 226.998C202.477 227.028 202.617 227.068 202.757 227.108C203.446 225.728 204.245 224.398 205.124 223.138C205.015 223.048 204.905 222.968 204.805 222.868C202.827 221.018 200.938 216.918 203.226 215.038C207.482 211.547 210.279 213.538 212.238 215.308C212.338 215.398 212.427 215.498 212.517 215.598C213.696 214.748 214.935 213.988 216.224 213.318C216.174 213.198 216.124 213.067 216.094 212.937C215.704 211.577 215.994 210.167 216.753 209.037C218.112 212.857 219.461 216.778 220.799 220.798C212.477 224.988 207.542 234.948 209.95 244.639C212.088 253.259 219.321 258.839 227.523 258.979C227.703 259.999 227.873 261.029 228.082 262.049C228.652 264.849 229.391 267.659 230.14 270.5C229.341 270.59 228.542 270.64 227.753 270.66C227.733 270.85 227.703 271.03 227.673 271.22C226.954 274.89 224.326 277.89 218.482 277.03C215.245 276.55 215.475 272.72 216.314 269.069C216.354 268.879 216.414 268.699 216.464 268.519C214.965 267.879 213.526 267.109 212.158 266.219C212.048 266.369 211.938 266.519 211.818 266.669C209.48 269.49 203.356 270.25 201.098 267.909C198.87 265.589 201.348 261.179 203.716 258.469C203.836 258.329 203.966 258.209 204.085 258.079C203.196 256.709 202.427 255.269 201.788 253.769C201.628 253.839 201.478 253.909 201.318 253.969C198.191 255.149 195.104 253.509 194.455 250.339C193.815 247.219 195.803 243.839 198.85 242.749C199.01 242.689 199.16 242.649 199.32 242.609C199.27 240.998 199.34 239.388 199.53 237.788C199.38 237.758 199.23 237.738 199.08 237.708Z" fill="url(#paint16_linear_1247_8413)"/>
<path d="M254.946 237.659C254.806 237.629 254.656 237.618 254.517 237.598C254.457 236.078 254.277 234.558 253.997 233.068C254.137 233.028 254.267 232.988 254.407 232.938C256.984 231.968 258.203 228.998 257.154 226.338C256.125 223.718 253.258 222.338 250.73 223.238C250.6 223.288 250.47 223.338 250.351 223.398C249.621 222.178 248.802 221.018 247.903 219.918C247.993 219.828 248.093 219.728 248.183 219.618C249.881 217.588 249.551 214.568 247.493 212.858C245.455 211.158 242.428 211.348 240.7 213.298C240.61 213.398 240.53 213.508 240.45 213.618C239.261 212.938 238.032 212.348 236.754 211.848C236.794 211.718 236.824 211.588 236.853 211.458C237.363 208.937 235.685 206.527 233.097 206.027C230.51 205.527 227.942 207.117 227.343 209.628C227.313 209.758 227.293 209.888 227.273 210.018C225.884 209.998 224.495 210.088 223.117 210.278C223.087 210.148 223.057 210.018 223.017 209.898C222.257 207.467 219.55 206.167 216.953 206.977C214.325 207.787 212.747 210.448 213.446 212.948C213.486 213.078 213.526 213.208 213.576 213.328C212.277 213.998 211.028 214.768 209.839 215.618C209.749 215.518 209.66 215.418 209.56 215.328C207.611 213.558 204.385 213.768 202.307 215.798C200.199 217.858 200.059 221.048 202.037 222.898C202.137 222.998 202.247 223.088 202.357 223.168C201.457 224.438 200.658 225.768 199.949 227.148C199.809 227.108 199.669 227.068 199.519 227.038C196.692 226.498 193.635 228.388 192.676 231.318C191.697 234.298 193.255 237.209 196.172 237.769C196.322 237.799 196.472 237.819 196.622 237.829C196.412 239.429 196.332 241.049 196.372 242.659C196.212 242.699 196.053 242.749 195.903 242.799C192.836 243.889 190.818 247.279 191.427 250.409C192.046 253.589 195.133 255.229 198.28 254.049C198.44 253.989 198.6 253.919 198.76 253.849C199.389 255.349 200.159 256.799 201.028 258.169C200.898 258.289 200.768 258.419 200.648 258.559C198.25 261.269 198.071 265.359 200.298 267.68C202.546 270.02 206.343 269.6 208.71 266.77C208.83 266.62 208.95 266.47 209.06 266.32C210.419 267.22 211.857 267.99 213.366 268.63C213.306 268.81 213.256 269 213.206 269.19C212.337 272.85 214.215 276.36 217.422 276.97C220.629 277.58 223.846 275.03 224.595 271.35C224.635 271.16 224.655 270.98 224.685 270.79C226.344 270.75 227.992 270.56 229.61 270.23C229.65 270.41 229.68 270.59 229.73 270.77C230.709 274.23 234.006 275.99 237.053 274.66C240.07 273.34 241.639 269.52 240.59 266.17C240.54 266 240.47 265.83 240.41 265.67C241.799 264.729 243.107 263.689 244.316 262.539C244.426 262.659 244.536 262.779 244.656 262.899C247.034 265.129 250.55 264.739 252.459 262.059C254.337 259.419 253.927 255.579 251.589 253.459C251.469 253.349 251.34 253.249 251.22 253.149C251.929 251.689 252.538 250.179 253.028 248.629C253.178 248.669 253.328 248.709 253.478 248.739C256.375 249.299 259.022 247.199 259.392 244.109C259.742 241.049 257.753 238.199 254.946 237.659ZM232.018 257.649C221.168 262.029 209.749 255.999 207.032 244.679C204.464 233.998 210.798 223.018 220.749 219.698C230.38 216.488 240.6 221.448 244.017 231.138C247.613 241.379 242.478 253.429 232.018 257.649Z" fill="url(#paint17_linear_1247_8413)"/>
<path d="M57.7152 35.1711C51.7809 29.2109 44.6777 25.3308 36.4855 23.5207C27.1345 21.4606 18.0732 22.3607 9.29157 26.2408C6.35438 27.5409 3.56705 29.1709 1.0095 31.111C-0.0494906 31.911 -0.299251 33.0611 0.390088 33.9811C1.07943 34.9011 2.24831 34.9911 3.31729 34.2011C17.5537 23.6407 36.8452 23.7007 50.9417 34.3411C53.699 36.4312 56.1667 38.8713 58.2946 41.5914C58.3746 41.6914 58.4545 41.8014 58.5344 41.9014L58.4445 42.2014C58.2447 42.1114 58.0549 41.9714 57.8451 41.9414C53.8889 41.3914 49.9327 40.8413 45.9664 40.3113C44.7776 40.1513 43.8185 40.8013 43.6387 41.8714C43.4589 42.8414 44.0583 43.8014 45.0074 44.0515C45.2172 44.1015 45.437 44.1415 45.6567 44.1715C51.2014 44.9315 56.7561 45.6915 62.3108 46.4515C63.9392 46.6716 64.7285 46.0715 64.9483 44.4515C65.7075 38.8913 66.4768 33.3411 67.2161 27.7809C67.286 27.3109 67.2261 26.8308 67.0662 26.3808C66.7466 25.5808 65.9173 25.1908 65.0981 25.3108C64.219 25.4408 63.5896 26.0508 63.4597 26.9908C63.16 29.0809 62.8803 31.171 62.5905 33.2611C62.3208 35.1911 62.061 37.1212 61.7913 39.0513C61.7713 39.2013 61.7413 39.3513 61.7014 39.5213C60.3427 38.0412 59.0839 36.5512 57.7152 35.1711Z" fill="#BFC8D6"/>
<path d="M61.7014 39.5313C60.3427 38.0412 59.0839 36.5512 57.7152 35.1711C51.7809 29.2109 44.6777 25.3308 36.4855 23.5207C27.1345 21.4606 18.0732 22.3607 9.29157 26.2408C6.35438 27.5409 3.56705 29.1709 1.0095 31.111C-0.0494906 31.911 -0.299251 33.0611 0.390088 33.9811C1.07943 34.9011 2.24831 34.9911 3.31729 34.2011C17.5537 23.6407 36.8452 23.7007 50.9417 34.3411C53.699 36.4312 56.1667 38.8713 58.2946 41.5914C58.3746 41.6914 58.4545 41.8014 58.5344 41.9014L58.4445 42.2014C58.2447 42.1114 58.0549 41.9714 57.8451 41.9414C53.8889 41.3914 49.9327 40.8413 45.9664 40.3113C44.7776 40.1513 43.8185 40.8013 43.6387 41.8714C43.4589 42.8414 44.0583 43.8014 45.0074 44.0515C45.2172 44.1015 45.437 44.1415 45.6567 44.1715C51.2014 44.9315 56.7561 45.6915 62.3108 46.4515C63.9392 46.6716 64.7285 46.0715 64.9483 44.4515C65.7075 38.8913 66.4768 33.3411 67.2161 27.7809C67.286 27.3109 67.2261 26.8308 67.0662 26.3808C66.7466 25.5808 65.9173 25.1908 65.0981 25.3108C64.219 25.4408 63.5896 26.0508 63.4597 26.9908C63.16 29.0809 62.8803 31.171 62.5905 33.2611C62.3208 35.1911 62.061 37.1212 61.7913 39.0513C61.7713 39.2213 61.7314 39.3713 61.7014 39.5313Z" fill="#BFC8D6"/>
<path d="M109.366 94.4934H42.8193V98.6936H109.366V94.4934Z" fill="white"/>
<path d="M109.366 102.774H42.8193V106.974H109.366V102.774Z" fill="white"/>
<path d="M109.276 111.444H42.7393V115.644H109.276V111.444Z" fill="white"/>
<path d="M74.1497 120.024H42.2402V133.955H74.1497V120.024Z" fill="white"/>
<path d="M109.275 119.924H77.5059V133.855H109.275V119.924Z" fill="white"/>
</g>
<defs>
<linearGradient id="paint0_linear_1247_8413" x1="147.929" y1="-9.82773" x2="158.332" y2="72.6387" gradientUnits="userSpaceOnUse">
<stop stop-color="#444B8C"/>
<stop offset="1" stop-color="#26264F"/>
</linearGradient>
<linearGradient id="paint1_linear_1247_8413" x1="184.659" y1="-1.25338" x2="174.725" y2="66.5552" gradientUnits="userSpaceOnUse">
<stop stop-color="#444B8C"/>
<stop offset="1" stop-color="#26264F"/>
</linearGradient>
<linearGradient id="paint2_linear_1247_8413" x1="87.2034" y1="103.303" x2="36.1842" y2="144.522" gradientUnits="userSpaceOnUse">
<stop stop-color="#444B8C"/>
<stop offset="1" stop-color="#26264F"/>
</linearGradient>
<linearGradient id="paint3_linear_1247_8413" x1="30.6206" y1="131.284" x2="27.1212" y2="156.13" gradientUnits="userSpaceOnUse">
<stop stop-color="#FFC444"/>
<stop offset="1" stop-color="#F36F56"/>
</linearGradient>
<linearGradient id="paint4_linear_1247_8413" x1="116.465" y1="143.375" x2="112.966" y2="168.22" gradientUnits="userSpaceOnUse">
<stop stop-color="#FFC444"/>
<stop offset="1" stop-color="#F36F56"/>
</linearGradient>
<linearGradient id="paint5_linear_1247_8413" x1="46.2257" y1="254.233" x2="40.9383" y2="269.953" gradientUnits="userSpaceOnUse">
<stop stop-color="#FFC444"/>
<stop offset="1" stop-color="#F36F56"/>
</linearGradient>
<linearGradient id="paint6_linear_1247_8413" x1="52.9846" y1="256.564" x2="47.7363" y2="272.168" gradientUnits="userSpaceOnUse">
<stop stop-color="#FFC444"/>
<stop offset="1" stop-color="#F36F56"/>
</linearGradient>
<linearGradient id="paint7_linear_1247_8413" x1="31.6596" y1="246.169" x2="56.4675" y2="218.225" gradientUnits="userSpaceOnUse">
<stop stop-color="#444B8C"/>
<stop offset="1" stop-color="#3E4177"/>
</linearGradient>
<linearGradient id="paint8_linear_1247_8413" x1="31.6615" y1="246.17" x2="56.4693" y2="218.227" gradientUnits="userSpaceOnUse">
<stop stop-color="#444B8C"/>
<stop offset="1" stop-color="#3E4177"/>
</linearGradient>
<linearGradient id="paint9_linear_1247_8413" x1="62.8232" y1="230.229" x2="99.4137" y2="223.417" gradientUnits="userSpaceOnUse">
<stop stop-color="#444B8C"/>
<stop offset="1" stop-color="#3E4177"/>
</linearGradient>
<linearGradient id="paint10_linear_1247_8413" x1="23.9482" y1="171.069" x2="120.233" y2="171.069" gradientUnits="userSpaceOnUse">
<stop stop-color="#C1272D"/>
<stop offset="1" stop-color="#FF928E"/>
</linearGradient>
<linearGradient id="paint11_linear_1247_8413" x1="69.9249" y1="149.211" x2="65.8015" y2="161.36" gradientUnits="userSpaceOnUse">
<stop stop-color="#FFC444"/>
<stop offset="1" stop-color="#F36F56"/>
</linearGradient>
<linearGradient id="paint12_linear_1247_8413" x1="18.0681" y1="300.287" x2="13.9447" y2="312.438" gradientUnits="userSpaceOnUse">
<stop stop-color="#FFC444"/>
<stop offset="1" stop-color="#F36F56"/>
</linearGradient>
<linearGradient id="paint13_linear_1247_8413" x1="-70.6972" y1="373.86" x2="-81.3142" y2="390.956" gradientUnits="userSpaceOnUse">
<stop stop-color="#FFC444"/>
<stop offset="1" stop-color="#F36F56"/>
</linearGradient>
<linearGradient id="paint14_linear_1247_8413" x1="96.3978" y1="121.285" x2="73.5715" y2="205.01" gradientUnits="userSpaceOnUse">
<stop stop-color="#FF9085"/>
<stop offset="1" stop-color="#FB6FBB"/>
</linearGradient>
<linearGradient id="paint15_linear_1247_8413" x1="183.334" y1="262.035" x2="227.161" y2="241.402" gradientUnits="userSpaceOnUse">
<stop stop-color="#311944"/>
<stop offset="1" stop-color="#893976"/>
</linearGradient>
<linearGradient id="paint16_linear_1247_8413" x1="241.118" y1="235.567" x2="230.294" y2="239.309" gradientUnits="userSpaceOnUse">
<stop stop-color="#311944"/>
<stop offset="1" stop-color="#893976"/>
</linearGradient>
<linearGradient id="paint17_linear_1247_8413" x1="191.31" y1="241.476" x2="259.417" y2="241.476" gradientUnits="userSpaceOnUse">
<stop stop-color="#C1272D"/>
<stop offset="1" stop-color="#FF928E"/>
</linearGradient>
<clipPath id="clip0_1247_8413">
<rect width="282" height="280" fill="white"/>
</clipPath>
</defs>
</svg>
