<svg width="13" height="13" viewBox="0 0 13 13" fill="none" xmlns="http://www.w3.org/2000/svg">
<g clipPath="url(#clip0_801_4688)">
<path d="M3.34225 9.75C3.45416 9.43283 3.66169 9.15819 3.93624 8.96392C4.21079 8.76966 4.53883 8.66533 4.87516 8.66533C5.21149 8.66533 5.53954 8.76966 5.81409 8.96392C6.08864 9.15819 6.29617 9.43283 6.40808 9.75H11.9168V10.8333H6.40808C6.29617 11.1505 6.08864 11.4251 5.81409 11.6194C5.53954 11.8137 5.21149 11.918 4.87516 11.918C4.53883 11.918 4.21079 11.8137 3.93624 11.6194C3.66169 11.4251 3.45416 11.1505 3.34225 10.8333H1.0835V9.75H3.34225ZM6.59225 5.95833C6.70415 5.64116 6.91169 5.36652 7.18624 5.17226C7.46079 4.97799 7.78883 4.87367 8.12516 4.87367C8.46149 4.87367 8.78954 4.97799 9.06409 5.17226C9.33864 5.36652 9.54617 5.64116 9.65808 5.95833H11.9168V7.04166H9.65808C9.54617 7.35883 9.33864 7.63347 9.06409 7.82773C8.78954 8.022 8.46149 8.12632 8.12516 8.12632C7.78883 8.12632 7.46079 8.022 7.18624 7.82773C6.91169 7.63347 6.70415 7.35883 6.59225 7.04166H1.0835V5.95833H6.59225ZM3.34225 2.16666C3.45416 1.8495 3.66169 1.57485 3.93624 1.38059C4.21079 1.18632 4.53883 1.082 4.87516 1.082C5.21149 1.082 5.53954 1.18632 5.81409 1.38059C6.08864 1.57485 6.29617 1.8495 6.40808 2.16666H11.9168V3.24999H6.40808C6.29617 3.56716 6.08864 3.8418 5.81409 4.03607C5.53954 4.23033 5.21149 4.33466 4.87516 4.33466C4.53883 4.33466 4.21079 4.23033 3.93624 4.03607C3.66169 3.8418 3.45416 3.56716 3.34225 3.24999H1.0835V2.16666H3.34225ZM4.87516 3.24999C5.01882 3.24999 5.1566 3.19293 5.25818 3.09134C5.35976 2.98976 5.41683 2.85199 5.41683 2.70833C5.41683 2.56467 5.35976 2.42689 5.25818 2.32531C5.1566 2.22373 5.01882 2.16666 4.87516 2.16666C4.7315 2.16666 4.59373 2.22373 4.49215 2.32531C4.39056 2.42689 4.3335 2.56467 4.3335 2.70833C4.3335 2.85199 4.39056 2.98976 4.49215 3.09134C4.59373 3.19293 4.7315 3.24999 4.87516 3.24999ZM8.12516 7.04166C8.26882 7.04166 8.4066 6.98459 8.50818 6.88301C8.60976 6.78143 8.66683 6.64365 8.66683 6.5C8.66683 6.35634 8.60976 6.21856 8.50818 6.11698C8.4066 6.0154 8.26882 5.95833 8.12516 5.95833C7.9815 5.95833 7.84373 6.0154 7.74215 6.11698C7.64056 6.21856 7.5835 6.35634 7.5835 6.5C7.5835 6.64365 7.64056 6.78143 7.74215 6.88301C7.84373 6.98459 7.9815 7.04166 8.12516 7.04166ZM4.87516 10.8333C5.01882 10.8333 5.1566 10.7763 5.25818 10.6747C5.35976 10.5731 5.41683 10.4353 5.41683 10.2917C5.41683 10.148 5.35976 10.0102 5.25818 9.90865C5.1566 9.80706 5.01882 9.75 4.87516 9.75C4.7315 9.75 4.59373 9.80706 4.49215 9.90865C4.39056 10.0102 4.3335 10.148 4.3335 10.2917C4.3335 10.4353 4.39056 10.5731 4.49215 10.6747C4.59373 10.7763 4.7315 10.8333 4.87516 10.8333Z" fill="#AEAEAE"/>
</g>
<defs>
<clipPath id="clip0_801_4688">
<rect width="13" height="13" fill="white"/>
</clipPath>
</defs>
</svg>
