<svg width="14" height="20" viewBox="0 0 14 20" fill="none" xmlns="http://www.w3.org/2000/svg">
<path d="M6.16647 13.2784C4.59641 13.0655 3.16576 12.2644 2.16384 11.037C1.16192 9.80956 0.66349 8.24746 0.769348 6.66658C0.875205 5.0857 1.57745 3.604 2.73407 2.52112C3.89069 1.43825 5.41538 0.835003 6.9998 0.833377C8.58616 0.831848 10.1137 1.43361 11.2729 2.51665C12.432 3.5997 13.1359 5.08299 13.2419 6.6658C13.3478 8.24862 12.848 9.81251 11.8436 11.0404C10.8393 12.2683 9.40553 13.0684 7.83313 13.2784V15H11.9998V16.6667H7.83313V20H6.16647V16.6667H1.9998V15H6.16647V13.2784ZM6.9998 11.6667C8.21538 11.6667 9.38117 11.1838 10.2407 10.3243C11.1002 9.46474 11.5831 8.29895 11.5831 7.08338C11.5831 5.8678 11.1002 4.70201 10.2407 3.84247C9.38117 2.98293 8.21538 2.50004 6.9998 2.50004C5.78422 2.50004 4.61844 2.98293 3.75889 3.84247C2.89935 4.70201 2.41647 5.8678 2.41647 7.08338C2.41647 8.29895 2.89935 9.46474 3.75889 10.3243C4.61844 11.1838 5.78422 11.6667 6.9998 11.6667Z" fill="#E8465A" fill-opacity="0.5"/>
</svg>
