<svg width="17" height="17" viewBox="0 0 17 17" fill="none" xmlns="http://www.w3.org/2000/svg">
<path d="M10.5416 5.11417L13.4875 2.16667H9.66664V0.5H16.3333V7.16667H14.6666V3.345L11.7191 6.2925C12.6807 7.55293 13.1273 9.13166 12.9686 10.709C12.8099 12.2864 12.0577 13.7445 10.8643 14.7881C9.67093 15.8317 8.12556 16.3828 6.54112 16.3298C4.95668 16.2768 3.45158 15.6237 2.33059 14.5027C1.20959 13.3817 0.556479 11.8766 0.503495 10.2922C0.450511 8.70775 1.00162 7.16238 2.04522 5.969C3.08882 4.77562 4.54692 4.02342 6.12428 3.8647C7.70164 3.70599 9.28037 4.15262 10.5408 5.11417H10.5416ZM6.74997 14.6667C7.96555 14.6667 9.13134 14.1838 9.99088 13.3242C10.8504 12.4647 11.3333 11.2989 11.3333 10.0833C11.3333 8.86776 10.8504 7.70197 9.99088 6.84243C9.13134 5.98288 7.96555 5.5 6.74997 5.5C5.5344 5.5 4.36861 5.98288 3.50907 6.84243C2.64952 7.70197 2.16664 8.86776 2.16664 10.0833C2.16664 11.2989 2.64952 12.4647 3.50907 13.3242C4.36861 14.1838 5.5344 14.6667 6.74997 14.6667Z" fill="#99C0E6"/>
</svg>
