<svg width="49" height="37" viewBox="0 0 49 37" fill="none" xmlns="http://www.w3.org/2000/svg">
<path d="M8.073 0.613125C8.5421 0.217191 9.13615 0 9.75 0C10.3639 0 10.9579 0.217191 11.427 0.613125L18.1168 6.26552L18.2 6.33833L18.2832 6.26552L24.973 0.613125C25.4421 0.217191 26.0361 0 26.65 0C27.2639 0 27.8579 0.217191 28.327 0.613125L35.0168 6.26552C35.4502 6.63167 35.7985 7.08797 36.0374 7.60259C36.2763 8.11721 36.4001 8.67776 36.4 9.24513V32.5125C36.4 33.5469 35.9891 34.5388 35.2577 35.2702C34.5263 36.0016 33.5343 36.4125 32.5 36.4125H3.9C2.86566 36.4125 1.87368 36.0016 1.14228 35.2702C0.410892 34.5388 0 33.5469 0 32.5125C0 23.425 0 18.33 0 9.24252C0 8.09852 0.507 7.00652 1.3832 6.26552L8.073 0.613125ZM19.5 25.9995H24.7C25.0448 25.9995 25.3754 26.1365 25.6192 26.3803C25.863 26.6241 26 26.9547 26 27.2995V33.8125H32.5C32.8448 33.8125 33.1754 33.6756 33.4192 33.4318C33.663 33.188 33.8 32.8573 33.8 32.5125V9.24252C33.7998 9.05391 33.7585 8.86761 33.679 8.69655C33.5995 8.52549 33.4838 8.37377 33.3398 8.25192L26.65 2.59952L19.9602 8.25192C19.8159 8.37405 19.6999 8.52619 19.6205 8.69773C19.541 8.86926 19.4999 9.05607 19.5 9.24513V25.9995ZM16.9 25.9995V9.24513C16.9001 9.05607 16.859 8.86926 16.7795 8.69773C16.7001 8.52619 16.5841 8.37405 16.4398 8.25192L9.75 2.59952L3.0602 8.25192C2.91589 8.37405 2.79995 8.52619 2.72047 8.69773C2.64099 8.86926 2.59987 9.05607 2.6 9.24513V32.5125C2.6 32.8573 2.73696 33.188 2.98076 33.4318C3.22456 33.6756 3.55522 33.8125 3.9 33.8125H10.4V27.2995C10.4 26.9547 10.537 26.6241 10.7808 26.3803C11.0246 26.1365 11.3552 25.9995 11.7 25.9995H16.9ZM13 33.8125H16.9V28.5995H13V33.8125ZM19.5 28.5995V33.8125H23.4V28.5995H19.5ZM9.75 14.2995C10.2672 14.2995 10.7632 14.0941 11.1289 13.7284C11.4946 13.3627 11.7 12.8667 11.7 12.3495C11.7 11.8324 11.4946 11.3364 11.1289 10.9707C10.7632 10.605 10.2672 10.3995 9.75 10.3995C9.23283 10.3995 8.73684 10.605 8.37114 10.9707C8.00545 11.3364 7.8 11.8324 7.8 12.3495C7.8 12.8667 8.00545 13.3627 8.37114 13.7284C8.73684 14.0941 9.23283 14.2995 9.75 14.2995ZM11.7 20.1495C11.7 20.6667 11.4946 21.1627 11.1289 21.5284C10.7632 21.8941 10.2672 22.0995 9.75 22.0995C9.23283 22.0995 8.73684 21.8941 8.37114 21.5284C8.00545 21.1627 7.8 20.6667 7.8 20.1495C7.8 19.6324 8.00545 19.1364 8.37114 18.7707C8.73684 18.405 9.23283 18.1995 9.75 18.1995C10.2672 18.1995 10.7632 18.405 11.1289 18.7707C11.4946 19.1364 11.7 19.6324 11.7 20.1495ZM26.65 14.2995C27.1672 14.2995 27.6632 14.0941 28.0289 13.7284C28.3946 13.3627 28.6 12.8667 28.6 12.3495C28.6 11.8324 28.3946 11.3364 28.0289 10.9707C27.6632 10.605 27.1672 10.3995 26.65 10.3995C26.1328 10.3995 25.6368 10.605 25.2711 10.9707C24.9054 11.3364 24.7 11.8324 24.7 12.3495C24.7 12.8667 24.9054 13.3627 25.2711 13.7284C25.6368 14.0941 26.1328 14.2995 26.65 14.2995ZM28.6 20.1495C28.6 20.6667 28.3946 21.1627 28.0289 21.5284C27.6632 21.8941 27.1672 22.0995 26.65 22.0995C26.1328 22.0995 25.6368 21.8941 25.2711 21.5284C24.9054 21.1627 24.7 20.6667 24.7 20.1495C24.7 19.6324 24.9054 19.1364 25.2711 18.7707C25.6368 18.405 26.1328 18.1995 26.65 18.1995C27.1672 18.1995 27.6632 18.405 28.0289 18.7707C28.3946 19.1364 28.6 19.6324 28.6 20.1495Z" fill="#EEA239"/>
<circle cx="39" cy="22" r="10" fill="white"/>
<path fillRule="evenodd" clip-rule="evenodd" d="M40 16C40.2652 16 40.5196 15.8946 40.7071 15.7071C40.8946 15.5196 41 15.2652 41 15C41 14.7348 40.8946 14.4804 40.7071 14.2929C40.5196 14.1054 40.2652 14 40 14H38C37.7348 14 37.4804 14.1054 37.2929 14.2929C37.1054 14.4804 37 14.7348 37 15C37 15.2652 37.1054 15.5196 37.2929 15.7071C37.4804 15.8946 37.7348 16 38 16V17.1C37.362 17.23 36.767 17.48 36.243 17.828L35.414 17C35.5962 16.8114 35.697 16.5588 35.6947 16.2966C35.6924 16.0344 35.5872 15.7836 35.4018 15.5982C35.2164 15.4128 34.9656 15.3076 34.7034 15.3053C34.4412 15.303 34.1886 15.4038 34 15.586L33.302 16.284L33.292 16.293L33.283 16.303L32.586 17C32.4038 17.1886 32.303 17.4412 32.3053 17.7034C32.3076 17.9656 32.4128 18.2164 32.5982 18.4018C32.7836 18.5872 33.0344 18.6924 33.2966 18.6947C33.5588 18.697 33.8114 18.5962 34 18.414L34.828 19.243C34.4745 19.7764 34.2274 20.3729 34.1 21H33C33 20.7348 32.8946 20.4804 32.7071 20.2929C32.5196 20.1054 32.2652 20 32 20C31.7348 20 31.4804 20.1054 31.2929 20.2929C31.1054 20.4804 31 20.7348 31 21V23C31 23.2652 31.1054 23.5196 31.2929 23.7071C31.4804 23.8946 31.7348 24 32 24C32.2652 24 32.5196 23.8946 32.7071 23.7071C32.8946 23.5196 33 23.2652 33 23H34.1C34.23 23.638 34.48 24.233 34.828 24.757L34 25.586C33.9078 25.4905 33.7974 25.4143 33.6754 25.3619C33.5534 25.3095 33.4222 25.2819 33.2894 25.2808C33.1566 25.2796 33.0249 25.3049 32.902 25.3552C32.7791 25.4055 32.6675 25.4797 32.5736 25.5736C32.4797 25.6675 32.4055 25.7792 32.3552 25.902C32.3049 26.0249 32.2796 26.1566 32.2808 26.2894C32.2819 26.4222 32.3095 26.5534 32.3619 26.6754C32.4143 26.7974 32.4905 26.9078 32.586 27L34 28.414C34.1886 28.5962 34.4412 28.697 34.7034 28.6947C34.9656 28.6924 35.2164 28.5872 35.4018 28.4018C35.5872 28.2164 35.6924 27.9656 35.6947 27.7034C35.697 27.4412 35.5962 27.1886 35.414 27L36.243 26.172C36.7764 26.5255 37.3729 26.7727 38 26.9V28C37.7348 28 37.4804 28.1054 37.2929 28.2929C37.1054 28.4804 37 28.7348 37 29C37 29.2652 37.1054 29.5196 37.2929 29.7071C37.4804 29.8946 37.7348 30 38 30H40C40.2652 30 40.5196 29.8946 40.7071 29.7071C40.8946 29.5196 41 29.2652 41 29C41 28.7348 40.8946 28.4804 40.7071 28.2929C40.5196 28.1054 40.2652 28 40 28V26.9C40.6271 26.7727 41.2236 26.5255 41.757 26.172L42.586 27C42.4038 27.1886 42.303 27.4412 42.3053 27.7034C42.3076 27.9656 42.4128 28.2164 42.5982 28.4018C42.7836 28.5872 43.0344 28.6924 43.2966 28.6947C43.5588 28.697 43.8114 28.5962 44 28.414L45.414 27C45.5962 26.8114 45.697 26.5588 45.6947 26.2966C45.6924 26.0344 45.5872 25.7836 45.4018 25.5982C45.2164 25.4128 44.9656 25.3076 44.7034 25.3053C44.4412 25.303 44.1886 25.4038 44 25.586L43.172 24.757C43.5255 24.2236 43.7727 23.6271 43.9 23H45C45 23.2652 45.1054 23.5196 45.2929 23.7071C45.4804 23.8946 45.7348 24 46 24C46.2652 24 46.5196 23.8946 46.7071 23.7071C46.8946 23.5196 47 23.2652 47 23V21C47 20.7348 46.8946 20.4804 46.7071 20.2929C46.5196 20.1054 46.2652 20 46 20C45.7348 20 45.4804 20.1054 45.2929 20.2929C45.1054 20.4804 45 20.7348 45 21H43.9C43.7727 20.3729 43.5255 19.7764 43.172 19.243L44 18.414C44.0922 18.5095 44.2026 18.5857 44.3246 18.6381C44.4466 18.6905 44.5778 18.7181 44.7106 18.7192C44.8434 18.7204 44.9751 18.6951 45.098 18.6448C45.2208 18.5945 45.3325 18.5203 45.4264 18.4264C45.5203 18.3325 45.5945 18.2208 45.6448 18.098C45.6951 17.9751 45.7204 17.8434 45.7192 17.7106C45.7181 17.5778 45.6905 17.4466 45.6381 17.3246C45.5857 17.2026 45.5095 17.0922 45.414 17L44 15.586C43.8114 15.4038 43.5588 15.303 43.2966 15.3053C43.0344 15.3076 42.7836 15.4128 42.5982 15.5982C42.4128 15.7836 42.3076 16.0344 42.3053 16.2966C42.303 16.5588 42.4038 16.8114 42.586 17L41.757 17.828C41.2236 17.4745 40.6271 17.2274 40 17.1V16ZM39 19C38.2044 19 37.4413 19.3161 36.8787 19.8787C36.3161 20.4413 36 21.2044 36 22C36 22.7956 36.3161 23.5587 36.8787 24.1213C37.4413 24.6839 38.2044 25 39 25C39.7956 25 40.5587 24.6839 41.1213 24.1213C41.6839 23.5587 42 22.7956 42 22C42 21.2044 41.6839 20.4413 41.1213 19.8787C40.5587 19.3161 39.7956 19 39 19Z" fill="#EEA239"/>
</svg>
