<svg width="16" height="16" viewBox="0 0 16 16" fill="none" xmlns="http://www.w3.org/2000/svg">
<path d="M13.1558 9.21103C12.9428 9.00103 12.4698 8.89003 11.7498 8.88003C11.1842 8.88065 10.6194 8.92209 10.0598 9.00403C9.78382 8.84503 9.49882 8.67103 9.27582 8.46203C8.67482 7.90103 8.17282 7.12203 7.86082 6.26503C7.88082 6.18503 7.89882 6.11503 7.91482 6.04303C7.91482 6.04303 8.25382 4.12003 8.16382 3.47003C8.1572 3.40705 8.14241 3.34519 8.11982 3.28603L8.09082 3.21003C7.99882 2.99803 7.81782 2.77303 7.53482 2.78503L7.36382 2.78003C7.04782 2.78003 6.79082 2.94103 6.72382 3.18303C6.51882 3.94003 6.73082 5.07203 7.11382 6.53803L7.01582 6.77703C6.74082 7.44703 6.39682 8.12203 6.09282 8.71703L6.05282 8.79403C5.73282 9.42003 5.44282 9.95103 5.17982 10.401L4.90882 10.545C4.88882 10.555 4.42382 10.802 4.31482 10.868C3.38882 11.421 2.77582 12.048 2.67382 12.546C2.64182 12.705 2.66582 12.908 2.82982 13.002L3.09282 13.134C3.20344 13.1903 3.32573 13.2197 3.44982 13.22C4.10882 13.22 4.87482 12.399 5.92982 10.558C7.17682 10.1549 8.45382 9.85127 9.74882 9.65003C10.6748 10.171 11.8138 10.533 12.5318 10.533C12.6598 10.533 12.7698 10.521 12.8588 10.497C12.9905 10.465 13.1061 10.386 13.1838 10.275C13.3228 10.065 13.3518 9.77603 13.3138 9.48003C13.2899 9.37597 13.2352 9.28152 13.1568 9.20903L13.1558 9.21103ZM3.30682 12.72C3.42682 12.391 3.90282 11.741 4.60682 11.164C4.65082 11.128 4.75982 11.026 4.85982 10.931C4.12382 12.105 3.63082 12.573 3.30682 12.719V12.72ZM7.47582 3.12003C7.68782 3.12003 7.80882 3.65403 7.81882 4.15503C7.82882 4.65603 7.71182 5.00803 7.56682 5.26803C7.44682 4.88303 7.38782 4.27603 7.38782 3.87903C7.38782 3.87903 7.37882 3.12003 7.47582 3.12003ZM6.23182 9.96103C6.37982 9.69703 6.53282 9.41803 6.68982 9.12203C7.07282 8.39803 7.31382 7.83203 7.49382 7.36703C7.83181 7.99336 8.28194 8.55229 8.82182 9.01603C8.88682 9.07103 8.95682 9.12703 9.02882 9.18203C7.96282 9.39303 7.04282 9.64903 6.23182 9.96103ZM12.9518 9.90103C12.8868 9.94203 12.7008 9.96503 12.5818 9.96503C12.1958 9.96503 11.7178 9.78903 11.0488 9.50103C11.3058 9.48203 11.5418 9.47203 11.7538 9.47203C12.1408 9.47203 12.2558 9.47003 12.6338 9.56703C13.0118 9.66403 13.0168 9.86003 12.9518 9.90003V9.90103Z" fill="#1D527E"/>
<path d="M14.341 3.579C13.994 3.106 13.51 2.552 12.979 2.021C12.448 1.49 11.894 1.006 11.421 0.659C10.615 0.068 10.224 0 10 0H2.25C1.561 0 1 0.561 1 1.25V14.75C1 15.439 1.561 16 2.25 16H13.75C14.439 16 15 15.439 15 14.75V5C15 4.776 14.932 4.385 14.341 3.579ZM12.271 2.729C12.751 3.209 13.127 3.641 13.405 4H10.999V1.595C11.358 1.873 11.792 2.249 12.271 2.729ZM14 14.75C14 14.886 13.886 15 13.75 15H2.25C2.18394 14.9992 2.1208 14.9726 2.07408 14.9259C2.02737 14.8792 2.00078 14.8161 2 14.75V1.25C2 1.115 2.115 1 2.25 1H10V4.5C10 4.63261 10.0527 4.75979 10.1464 4.85355C10.2402 4.94732 10.3674 5 10.5 5H14V14.75Z" fill="#1D527E"/>
</svg>
