<svg width="22" height="22" viewBox="0 0 16 16" fill="none" xmlns="http://www.w3.org/2000/svg">
<path d="M13.7447 2.34147C13.5259 2.11136 13.2633 1.92738 12.9723 1.80034C12.6813 1.6733 12.3678 1.60578 12.0503 1.60175C11.7327 1.59773 11.4176 1.65728 11.1235 1.7769C10.8294 1.89652 10.5621 2.07379 10.3375 2.29827L2.83755 9.79827C2.5754 10.0603 2.39336 10.3917 2.31275 10.7535L1.61115 13.9135C1.59651 13.9791 1.59867 14.0474 1.61743 14.112C1.63619 14.1767 1.67095 14.2355 1.71848 14.2831C1.76602 14.3307 1.8248 14.3656 1.88938 14.3845C1.95396 14.4033 2.02225 14.4056 2.08795 14.3911L5.22955 13.6927C5.6035 13.6094 5.94595 13.4213 6.21675 13.1503L13.7031 5.66387C14.142 5.22486 14.3919 4.63179 14.3997 4.01113C14.4074 3.39046 14.1724 2.79132 13.7447 2.34147ZM10.9031 2.86387C11.0495 2.71542 11.2237 2.5974 11.4159 2.5166C11.608 2.4358 11.8143 2.39381 12.0227 2.39307C12.2311 2.39232 12.4377 2.43282 12.6304 2.51224C12.8231 2.59167 12.9982 2.70844 13.1456 2.85583C13.293 3.00322 13.4097 3.17832 13.4892 3.37103C13.5686 3.56375 13.6091 3.77028 13.6083 3.97872C13.6076 4.18716 13.5656 4.39339 13.4848 4.58554C13.404 4.77768 13.286 4.95194 13.1375 5.09827L12.6007 5.63507L10.3663 3.40147L10.9031 2.86387ZM9.80075 3.96787L12.0351 6.20147L5.65115 12.5855C5.48791 12.7489 5.28143 12.8624 5.05595 12.9127L2.52795 13.4743L3.09435 10.9279C3.14155 10.7143 3.24875 10.5191 3.40315 10.3647L9.80075 3.96787Z" fill="black"/>
</svg>
