<svg width="25" height="25" viewBox="0 0 25 25" fill="none" xmlns="http://www.w3.org/2000/svg">
<g clipPath="url(#clip0_1251_6301)">
<path d="M21.875 1.5625C22.2894 1.5625 22.6868 1.72712 22.9799 2.02015C23.2729 2.31317 23.4375 2.7106 23.4375 3.125V21.875C23.4375 22.2894 23.2729 22.6868 22.9799 22.9799C22.6868 23.2729 22.2894 23.4375 21.875 23.4375H3.125C2.7106 23.4375 2.31317 23.2729 2.02015 22.9799C1.72712 22.6868 1.5625 22.2894 1.5625 21.875V3.125C1.5625 2.7106 1.72712 2.31317 2.02015 2.02015C2.31317 1.72712 2.7106 1.5625 3.125 1.5625H21.875ZM3.125 0C2.2962 0 1.50134 0.32924 0.915291 0.915291C0.32924 1.50134 0 2.2962 0 3.125L0 21.875C0 22.7038 0.32924 23.4987 0.915291 24.0847C1.50134 24.6708 2.2962 25 3.125 25H21.875C22.7038 25 23.4987 24.6708 24.0847 24.0847C24.6708 23.4987 25 22.7038 25 21.875V3.125C25 2.2962 24.6708 1.50134 24.0847 0.915291C23.4987 0.32924 22.7038 0 21.875 0L3.125 0Z" fill="#1D527E"/>
<path d="M8.21127 9.04062C8.20913 9.09108 8.21734 9.14145 8.23538 9.18862C8.25343 9.23579 8.28093 9.27877 8.3162 9.31492C8.35147 9.35107 8.39376 9.37962 8.44048 9.39882C8.48719 9.41802 8.53734 9.42746 8.58783 9.42656H9.87689C10.0925 9.42656 10.2644 9.25 10.2925 9.03594C10.4331 8.01094 11.1363 7.26406 12.3894 7.26406C13.4613 7.26406 14.4425 7.8 14.4425 9.08906C14.4425 10.0812 13.8581 10.5375 12.9347 11.2313C11.8831 11.9953 11.0503 12.8875 11.1097 14.3359L11.1144 14.675C11.116 14.7775 11.1579 14.8753 11.231 14.9472C11.3041 15.0191 11.4025 15.0594 11.505 15.0594H12.7722C12.8758 15.0594 12.9752 15.0182 13.0484 14.945C13.1217 14.8717 13.1628 14.7723 13.1628 14.6687V14.5047C13.1628 13.3828 13.5894 13.0563 14.741 12.1828C15.6925 11.4594 16.6847 10.6563 16.6847 8.97031C16.6847 6.60938 14.691 5.46875 12.5081 5.46875C10.5285 5.46875 8.35971 6.39062 8.21127 9.04062ZM10.6441 18.0453C10.6441 18.8781 11.3081 19.4937 12.2222 19.4937C13.1738 19.4937 13.8285 18.8781 13.8285 18.0453C13.8285 17.1828 13.1722 16.5766 12.2206 16.5766C11.3081 16.5766 10.6441 17.1828 10.6441 18.0453Z" fill="#1D527E"/>
</g>
<defs>
<clipPath id="clip0_1251_6301">
<rect width="25" height="25" fill="white"/>
</clipPath>
</defs>
</svg>
