<svg width="16" height="16" viewBox="0 0 16 16" fill="#000000" xmlns="http://www.w3.org/2000/svg">
<path d="M6.57101 3.42878H9.42815C9.42815 3.0499 9.27764 2.68654 9.00973 2.41863C8.74183 2.15072 8.37846 2.00021 7.99958 2.00021C7.6207 2.00021 7.25734 2.15072 6.98943 2.41863C6.72152 2.68654 6.57101 3.0499 6.57101 3.42878ZM5.71387 3.42878C5.71387 2.82257 5.95468 2.24119 6.38334 1.81254C6.81199 1.38388 7.39337 1.14307 7.99958 1.14307C8.60579 1.14307 9.18717 1.38388 9.61583 1.81254C10.0445 2.24119 10.2853 2.82257 10.2853 3.42878H13.8567C13.9704 3.42878 14.0794 3.47393 14.1598 3.55431C14.2401 3.63468 14.2853 3.74369 14.2853 3.85735C14.2853 3.97102 14.2401 4.08003 14.1598 4.1604C14.0794 4.24077 13.9704 4.28592 13.8567 4.28592H13.1082L12.4127 12.6305C12.3621 13.2375 12.0853 13.8034 11.637 14.2159C11.1888 14.6283 10.6019 14.8573 9.99273 14.8574H6.00644C5.39729 14.8573 4.8104 14.6283 4.36216 14.2159C3.91391 13.8034 3.63703 13.2375 3.58644 12.6305L2.89101 4.28592H2.14244C2.02877 4.28592 1.91977 4.24077 1.83939 4.1604C1.75902 4.08003 1.71387 3.97102 1.71387 3.85735C1.71387 3.74369 1.75902 3.63468 1.83939 3.55431C1.91977 3.47393 2.02877 3.42878 2.14244 3.42878H5.71387ZM4.44072 12.5591C4.4734 12.9519 4.65251 13.3181 4.94252 13.585C5.23254 13.8519 5.61228 14.0001 6.00644 14.0002H9.99273C10.3869 14.0001 10.7666 13.8519 11.0566 13.585C11.3467 13.3181 11.5258 12.9519 11.5584 12.5591L12.2487 4.28592H3.75101L4.44072 12.5591ZM6.71387 6.28592C6.82753 6.28592 6.93654 6.33108 7.01691 6.41145C7.09729 6.49182 7.14244 6.60083 7.14244 6.7145V11.5716C7.14244 11.6853 7.09729 11.7943 7.01691 11.8747C6.93654 11.9551 6.82753 12.0002 6.71387 12.0002C6.6002 12.0002 6.49119 11.9551 6.41082 11.8747C6.33045 11.7943 6.2853 11.6853 6.2853 11.5716V6.7145C6.2853 6.60083 6.33045 6.49182 6.41082 6.41145C6.49119 6.33108 6.6002 6.28592 6.71387 6.28592ZM9.71387 6.7145C9.71387 6.60083 9.66872 6.49182 9.58834 6.41145C9.50797 6.33108 9.39896 6.28592 9.2853 6.28592C9.17163 6.28592 9.06262 6.33108 8.98225 6.41145C8.90188 6.49182 8.85672 6.60083 8.85672 6.7145V11.5716C8.85672 11.6853 8.90188 11.7943 8.98225 11.8747C9.06262 11.9551 9.17163 12.0002 9.2853 12.0002C9.39896 12.0002 9.50797 11.9551 9.58834 11.8747C9.66872 11.7943 9.71387 11.6853 9.71387 11.5716V6.7145Z" fill="black"/>
</svg>
