<svg width="20" height="20" viewBox="0 0 17 17" fill="none" xmlns="http://www.w3.org/2000/svg">
<path d="M2.75746 0H12.0638L15.0605 3.41V14C15.0605 14.7956 14.7827 15.5587 14.2883 16.1213C13.7939 16.6839 13.1233 17 12.4241 17H2.75746C2.05825 17 1.38768 16.6839 0.893267 16.1213C0.398853 15.5587 0.121094 14.7956 0.121094 14V3C0.121094 2.20435 0.398853 1.44129 0.893267 0.87868C1.38768 0.316071 2.05825 0 2.75746 0ZM2.75746 1C2.29132 1 1.84427 1.21071 1.51466 1.58579C1.18505 1.96086 0.999882 2.46957 0.999882 3V14C0.999882 14.5304 1.18505 15.0391 1.51466 15.4142C1.84427 15.7893 2.29132 16 2.75746 16H12.4241C12.8903 16 13.3373 15.7893 13.6669 15.4142C13.9965 15.0391 14.1817 14.5304 14.1817 14V3.91L11.6244 1H10.6665V6H2.75746V1ZM3.63625 1V5H9.78776V1H3.63625ZM8.03018 8C8.72939 8 9.39996 8.31607 9.89438 8.87868C10.3888 9.44129 10.6665 10.2044 10.6665 11C10.6665 11.7956 10.3888 12.5587 9.89438 13.1213C9.39996 13.6839 8.72939 14 8.03018 14C7.33098 14 6.66041 13.6839 6.16599 13.1213C5.67158 12.5587 5.39382 11.7956 5.39382 11C5.39382 10.2044 5.67158 9.44129 6.16599 8.87868C6.66041 8.31607 7.33098 8 8.03018 8ZM8.03018 9C7.56405 9 7.117 9.21071 6.78739 9.58579C6.45778 9.96086 6.27261 10.4696 6.27261 11C6.27261 11.5304 6.45778 12.0391 6.78739 12.4142C7.117 12.7893 7.56405 13 8.03018 13C8.49632 13 8.94337 12.7893 9.27298 12.4142C9.60259 12.0391 9.78776 11.5304 9.78776 11C9.78776 10.4696 9.60259 9.96086 9.27298 9.58579C8.94337 9.21071 8.49632 9 8.03018 9Z" fill="white"/>
</svg>
