<svg width="26" height="26" viewBox="0 0 26 26" fill="none" xmlns="http://www.w3.org/2000/svg">
<path d="M16.125 6.125H19.875M19.875 6.125H23.625M19.875 6.125V9.875M19.875 6.125V2.375" stroke="#1D527E" stroke-width="1.5" stroke-linecap="round"/>
<path d="M1.125 6.125C1.125 3.7675 1.125 2.59 1.8575 1.8575C2.59 1.125 3.7675 1.125 6.125 1.125C8.4825 1.125 9.66 1.125 10.3925 1.8575C11.125 2.59 11.125 3.7675 11.125 6.125C11.125 8.4825 11.125 9.66 10.3925 10.3925C9.66 11.125 8.4825 11.125 6.125 11.125C3.7675 11.125 2.59 11.125 1.8575 10.3925C1.125 9.66 1.125 8.4825 1.125 6.125ZM14.875 19.875C14.875 17.5175 14.875 16.34 15.6075 15.6075C16.34 14.875 17.5175 14.875 19.875 14.875C22.2325 14.875 23.41 14.875 24.1425 15.6075C24.875 16.34 24.875 17.5175 24.875 19.875C24.875 22.2325 24.875 23.41 24.1425 24.1425C23.41 24.875 22.2325 24.875 19.875 24.875C17.5175 24.875 16.34 24.875 15.6075 24.1425C14.875 23.41 14.875 22.2325 14.875 19.875ZM1.125 19.875C1.125 17.5175 1.125 16.34 1.8575 15.6075C2.59 14.875 3.7675 14.875 6.125 14.875C8.4825 14.875 9.66 14.875 10.3925 15.6075C11.125 16.34 11.125 17.5175 11.125 19.875C11.125 22.2325 11.125 23.41 10.3925 24.1425C9.66 24.875 8.4825 24.875 6.125 24.875C3.7675 24.875 2.59 24.875 1.8575 24.1425C1.125 23.41 1.125 22.2325 1.125 19.875Z" stroke="#1D527E" stroke-width="1.5"/>
</svg>
